# xmcd CD database file
#
# Track frame offsets:
#	150
#	7642
#	23735
#	51832
#	61900
#	94085
#	104030
#	128497
#	142220
#	157135
#	176975
#	198565
#	207290
#	220592
#	236242
#
# Disc length: 3157 seconds
#
# Revision: 0
# Processed by: cddbd v1.5.1PL0 Copyright (c) Steve Scherf et al.
# Submitted via: CDex 1.51
#
DISCID=d90c530f
DTITLE=Marian McPartland/Rosemary Clooney - Piano Jazz
DYEAR=2003
DGENRE=Jazz
TTITLE0=Conversation
TTITLE1=Love is Here to Stay
TTITLE2=Conversation
TTITLE3=My Silent Love
TTITLE4=Conversation
TTITLE5=My Shining Hour
TTITLE6=Conversation
TTITLE7=Lush Live
TTITLE8=Conversation
TTITLE9=Don't Fence Me In
TTITLE10=Conversation
TTITLE11=I'll Take Romance
TTITLE12=Conversation
TTITLE13=September Song
TTITLE14=Conversation
EXTD=YEAR: 2003
EXTT0=
EXTT1=
EXTT2=
EXTT3=
EXTT4=
EXTT5=
EXTT6=
EXTT7=
EXTT8=
EXTT9=
EXTT10=
EXTT11=
EXTT12=
EXTT13=
EXTT14=
PLAYORDER=
